<?xml version="1.0" standalone="no"?>
<!DOCTYPE svg PUBLIC "-//W3C//DTD SVG 20010904//EN"
 "http://www.w3.org/TR/2001/REC-SVG-20010904/DTD/svg10.dtd">
<svg version="1.0" xmlns="http://www.w3.org/2000/svg"
 width="1907.000000pt" height="1880.000000pt" viewBox="0 0 1907.000000 1880.000000"
 preserveAspectRatio="xMidYMid meet">

<g transform="translate(0.000000,1880.000000) scale(0.100000,-0.100000)"
fill="#000000" stroke="none">
<path d="M8205 18784 c-584 -86 -1157 -592 -1660 -1464 -100 -173 -267 -510
-335 -676 l-53 -129 -116 -49 c-64 -27 -197 -88 -297 -136 l-181 -87 117 241
c184 376 316 698 381 925 l23 83 106 74 c58 40 150 96 206 123 110 54 159 99
170 156 9 47 -1 79 -35 118 -27 30 -34 32 -93 32 -54 0 -71 -5 -107 -28 -23
-15 -56 -48 -73 -72 -18 -25 -33 -44 -34 -42 -1 1 2 22 6 47 5 25 9 80 10 123
0 123 -34 177 -113 177 -75 0 -117 -84 -118 -239 l0 -86 -19 50 c-49 126 -157
188 -248 141 -40 -21 -62 -63 -62 -119 0 -56 34 -107 118 -177 73 -59 262
-277 262 -300 0 -21 -76 -219 -140 -366 -72 -167 -246 -503 -378 -735 l-112
-196 -153 -85 c-255 -142 -636 -387 -841 -543 -47 -35 -50 -42 80 150 344 508
515 904 476 1101 -17 83 -49 126 -119 161 -51 25 -69 28 -153 28 -86 0 -101
-3 -163 -32 -213 -101 -327 -380 -358 -879 -11 -174 -3 -476 18 -644 l5 -46
-129 -106 c-297 -244 -739 -673 -963 -935 -52 -61 -97 -110 -99 -108 -1 2 17
88 42 192 91 376 148 707 168 990 l12 163 114 125 c63 69 117 125 121 125 5 0
33 22 64 50 94 83 110 163 47 235 -39 44 -84 53 -144 30 -54 -20 -118 -90
-138 -148 l-14 -42 -6 71 c-9 95 -41 195 -71 223 -13 12 -42 25 -64 28 -33 4
-44 1 -72 -24 -27 -24 -33 -38 -37 -80 -5 -47 8 -157 24 -200 3 -10 -8 0 -26
21 -42 52 -87 84 -135 97 -109 29 -204 -74 -162 -174 21 -52 57 -81 166 -137
52 -27 143 -86 203 -130 l107 -81 0 -52 c-1 -185 -104 -679 -235 -1127 -98
-331 -88 -310 -216 -481 -262 -349 -468 -670 -698 -1089 -29 -52 -50 -88 -47
-78 2 9 23 74 45 144 236 737 272 1575 100 2283 -17 69 -40 149 -51 179 l-20
54 -60 -58 c-216 -213 -361 -545 -430 -985 -20 -127 -22 -183 -23 -474 0 -344
6 -432 51 -738 37 -253 88 -495 150 -716 l35 -124 -40 -91 c-299 -686 -511
-1463 -605 -2216 -47 -377 -60 -586 -60 -1000 -1 -479 22 -798 90 -1240 20
-133 92 -513 120 -630 3 -14 -23 29 -58 95 -212 396 -456 724 -772 1040 -156
156 -302 281 -424 364 l-60 40 -6 -27 c-14 -67 -18 -253 -7 -352 49 -414 276
-863 675 -1329 233 -274 646 -659 923 -861 58 -43 63 -50 99 -140 20 -52 62
-151 92 -220 89 -204 84 -193 70 -184 -7 5 -67 45 -133 90 -384 261 -701 410
-896 422 -103 6 -143 -6 -192 -54 -41 -41 -62 -105 -60 -186 2 -89 27 -151 90
-219 119 -128 341 -195 708 -214 109 -5 344 4 500 21 l60 6 58 -118 c189 -385
497 -880 762 -1228 25 -33 14 -27 -75 43 -402 315 -880 565 -1390 729 -312
100 -752 182 -982 182 -50 0 -49 -12 8 -117 276 -508 935 -878 1904 -1072 203
-41 450 -77 630 -91 80 -7 154 -14 165 -16 11 -3 58 -50 105 -105 47 -56 152
-171 234 -256 81 -85 146 -157 143 -159 -3 -3 -88 6 -189 20 -342 48 -563 67
-858 73 l-285 6 -135 61 c-74 34 -169 85 -210 113 -41 28 -94 56 -117 62 -57
15 -114 0 -146 -39 -84 -100 -3 -228 162 -255 l45 -7 -72 -23 c-178 -56 -238
-141 -157 -222 35 -35 37 -36 98 -31 39 3 91 18 137 37 41 18 82 35 90 39 8 3
-2 -14 -23 -38 -83 -98 -82 -241 3 -285 69 -36 158 -5 192 66 10 19 27 82 37
140 11 57 39 160 63 229 l43 125 65 3 c208 11 736 -55 1211 -151 l166 -34 134
-123 c209 -192 498 -428 709 -580 41 -29 79 -57 84 -61 4 -4 -29 4 -75 17
-143 42 -437 112 -580 138 -550 101 -838 17 -816 -237 15 -182 131 -310 329
-364 84 -23 316 -23 448 1 225 40 508 128 765 238 132 57 141 59 165 45 14 -8
86 -53 160 -99 310 -196 745 -425 1077 -568 170 -74 189 -90 111 -90 -65 0
-335 -30 -550 -60 -242 -35 -453 -77 -599 -121 -57 -17 -120 -36 -140 -42 -36
-10 -41 -8 -141 56 -57 36 -139 97 -182 134 -125 110 -187 133 -257 98 -106
-55 -82 -207 42 -269 29 -14 60 -26 69 -26 43 0 24 -15 -39 -31 -128 -33 -189
-78 -198 -147 -4 -34 -1 -44 25 -73 28 -32 35 -34 89 -33 50 1 87 10 198 50
14 5 10 -4 -16 -32 -42 -45 -59 -75 -70 -124 -19 -80 35 -159 113 -167 85 -8
141 44 179 166 11 36 52 136 90 222 l71 157 91 26 c265 74 708 126 1233 145
l239 8 280 -93 c718 -239 1326 -359 2100 -415 208 -16 815 -15 1020 0 733 54
1355 175 2025 393 289 94 726 266 913 359 34 17 58 27 52 21 -5 -5 -57 -50
-115 -99 -415 -354 -761 -779 -1003 -1233 -52 -98 -106 -216 -122 -267 -6 -21
-3 -23 33 -23 64 0 205 28 310 61 613 194 1248 877 1745 1877 l110 223 126 86
c107 73 255 180 389 281 l34 26 -17 -40 c-189 -438 -293 -788 -303 -1020 -6
-146 10 -214 64 -274 45 -49 88 -64 175 -58 170 13 283 128 325 333 13 63 15
115 11 245 -7 234 -51 458 -146 749 l-39 120 104 85 c305 252 698 633 938 909
71 81 130 147 132 147 3 0 -23 -53 -55 -118 -328 -655 -497 -1438 -461 -2139
10 -181 30 -360 50 -434 l11 -40 32 22 c65 46 245 237 304 324 196 289 320
674 380 1170 14 120 18 228 18 540 0 399 -8 536 -45 809 l-20 139 82 111 c46
61 131 182 189 269 l107 158 7 -88 c40 -537 99 -946 175 -1217 17 -58 30 -111
30 -117 0 -24 -152 -241 -224 -319 -112 -121 -131 -197 -70 -269 86 -103 254
-13 280 149 8 52 18 42 33 -35 35 -181 138 -272 222 -197 24 21 32 38 36 72 4
40 -16 132 -43 195 -6 15 1 13 33 -13 45 -35 110 -62 152 -62 66 0 131 67 131
135 0 33 -30 88 -63 116 -12 10 -51 28 -87 40 -95 32 -162 63 -280 129 l-106
60 -22 92 c-69 294 -107 676 -119 1179 l-6 275 80 135 c723 1216 1122 2614
1146 4009 l2 124 54 -94 c300 -522 584 -842 770 -867 70 -9 109 4 161 56 89
89 117 231 71 352 -86 225 -429 460 -958 654 l-103 38 0 106 c0 215 -32 596
-76 914 -23 162 -67 421 -80 472 -3 11 32 -47 78 -130 234 -418 433 -681 762
-1011 230 -230 400 -371 626 -523 123 -82 314 -191 334 -191 14 0 4 197 -14
295 -60 308 -226 621 -500 940 -94 109 -342 352 -465 456 -220 186 -593 448
-837 589 l-95 55 -43 150 c-23 83 -70 234 -104 338 -35 103 -61 187 -60 187 2
0 81 -51 176 -114 303 -198 602 -372 814 -471 l91 -42 36 -101 c43 -120 61
-190 76 -290 6 -41 20 -91 31 -112 52 -102 196 -107 243 -7 30 63 18 134 -37
215 l-33 50 50 -23 c76 -36 170 -58 210 -51 52 10 87 50 87 99 0 53 -52 106
-135 136 -99 36 -105 40 -65 40 47 1 131 42 158 76 50 63 46 143 -9 189 -63
53 -134 44 -250 -33 -90 -59 -125 -77 -253 -130 l-99 -41 -106 56 c-253 136
-643 394 -959 635 l-83 64 -58 145 c-108 270 -242 559 -382 820 -49 93 -64
128 -48 114 314 -279 625 -506 834 -609 289 -141 479 -101 526 109 41 186 -37
352 -223 473 -232 150 -677 247 -1222 266 l-68 2 -112 175 c-196 308 -413 601
-651 880 -71 83 -141 165 -153 180 l-24 29 79 -30 c129 -50 509 -177 656 -220
211 -61 396 -101 577 -124 l46 -6 66 -112 c76 -129 96 -167 132 -257 45 -110
118 -162 196 -140 75 22 110 88 89 172 -9 41 -24 64 -68 110 -32 32 -55 58
-51 58 3 -1 32 -7 65 -15 76 -19 178 -19 213 -1 86 44 89 142 5 185 -42 21
-134 41 -197 42 l-41 0 50 17 c63 21 139 93 153 145 28 103 -69 191 -175 156
-24 -8 -73 -46 -138 -108 -55 -53 -146 -129 -202 -169 l-101 -72 -89 16 c-298
52 -789 221 -1271 438 l-124 55 -187 183 c-216 212 -394 370 -608 541 -83 67
-150 123 -149 124 1 1 62 -22 136 -53 330 -135 743 -243 1100 -288 404 -52
894 -43 1172 20 l68 16 -62 75 c-423 513 -1368 740 -2571 617 -84 -8 -194 -22
-245 -30 l-93 -14 -57 38 c-324 218 -888 511 -1347 700 -689 282 -1556 497
-2255 558 l-85 7 135 24 c295 51 635 149 915 263 265 108 599 290 757 412 l61
48 -75 35 c-410 189 -919 175 -1551 -42 -398 -136 -894 -387 -1274 -644 l-112
-76 -133 -7 c-73 -4 -225 -18 -338 -30 -113 -13 -206 -23 -207 -22 -1 1 41 33
93 71 53 37 144 107 204 154 478 381 691 675 606 838 -56 109 -241 165 -376
114 -227 -86 -445 -479 -575 -1037 -19 -80 -36 -148 -38 -151 -2 -2 -81 -17
-176 -33 -507 -88 -1052 -235 -1508 -409 -57 -21 -103 -37 -103 -36 0 1 49 30
108 63 146 81 412 261 547 368 506 401 905 879 1177 1409 87 171 162 347 156
369 -2 10 -20 10 -83 0z m-167 -227 c-444 -429 -1124 -1161 -1656 -1782 -54
-64 -48 -47 66 182 253 505 538 919 842 1223 238 238 509 413 750 484 152 45
152 41 -2 -107z m68 -9 c-89 -196 -286 -512 -449 -720 -339 -435 -760 -803
-1242 -1088 -26 -15 42 60 195 216 518 526 1111 1172 1454 1582 38 45 71 82
72 82 2 0 -11 -33 -30 -72z m829 -398 c80 -39 95 -104 46 -205 -74 -156 -272
-360 -611 -627 -61 -49 -60 -44 26 67 93 121 185 258 253 376 91 160 94 178
14 94 -118 -125 -291 -353 -388 -513 -21 -34 -40 -61 -42 -59 -5 6 63 224 102
327 119 313 256 502 402 556 51 19 141 12 198 -16z m-2785 -49 c21 -40 8 -166
-31 -301 l-13 -45 -8 75 c-5 41 -7 111 -5 155 7 116 31 164 57 116z m-296
-122 c41 -32 63 -82 91 -203 l6 -30 -43 40 c-24 22 -60 52 -81 68 -58 44 -83
106 -55 134 18 18 52 14 82 -9z m5550 -65 c104 -16 286 -69 286 -83 0 -4 -42
-15 -92 -25 -537 -101 -1665 -380 -2308 -570 -102 -30 -186 -53 -188 -51 -5 4
163 107 308 188 506 284 1009 473 1432 537 161 24 423 26 562 4z m-4929 -18
c28 -43 5 -69 -116 -130 l-109 -55 29 58 c38 74 77 120 116 137 44 19 63 17
80 -10z m5155 -110 c0 -2 -42 -28 -92 -58 -482 -286 -1015 -467 -1618 -549
-123 -16 -222 -22 -485 -25 -181 -2 -325 -2 -320 1 6 2 89 21 185 40 364 74
989 223 1470 351 263 70 832 232 839 240 5 5 21 5 21 0z m-1805 -756 c1280
-90 2485 -470 3601 -1136 171 -101 470 -300 620 -412 l121 -90 6 -433 c6 -502
29 -781 83 -1017 l14 -64 -72 -96 c-39 -54 -118 -143 -174 -199 -76 -75 -106
-111 -115 -141 -17 -57 -5 -102 37 -143 30 -29 42 -34 83 -34 81 0 152 62 187
164 12 34 13 35 17 11 23 -114 41 -181 57 -207 44 -73 124 -88 172 -34 41 46
39 112 -8 280 -6 18 3 13 37 -24 104 -114 248 -113 288 2 32 90 -19 157 -170
222 -46 20 -138 71 -205 114 l-121 77 -12 72 c-34 220 -36 269 -35 768 1 278
5 530 10 562 l9 56 145 -120 c225 -186 379 -326 575 -523 149 -149 371 -389
423 -456 9 -13 2 -42 -43 -161 -296 -793 -369 -1654 -206 -2439 48 -227 139
-529 161 -529 13 0 103 109 160 193 134 201 224 468 266 792 23 178 23 554 0
770 -22 202 -64 457 -112 667 -39 173 -129 498 -163 588 -11 30 -19 55 -17 58
6 5 161 -188 292 -363 220 -294 425 -614 598 -929 105 -192 226 -431 226 -449
0 -7 -43 -71 -97 -142 -130 -175 -318 -461 -409 -621 -297 -527 -310 -828 -35
-885 170 -35 340 49 441 220 119 201 180 571 166 1011 -3 113 -8 230 -12 260
l-5 55 41 -90 c126 -273 293 -742 394 -1105 l54 -196 -49 -169 c-64 -217 -150
-565 -188 -753 -40 -199 -59 -329 -73 -505 l-12 -149 -105 -79 c-59 -44 -142
-98 -186 -120 -110 -57 -144 -85 -167 -136 -40 -92 18 -183 117 -183 67 0 143
46 184 112 17 26 17 23 13 -85 -3 -86 -1 -121 11 -149 19 -44 58 -72 103 -72
72 0 114 84 114 228 l0 81 21 -45 c23 -50 70 -105 111 -126 15 -8 48 -14 73
-14 95 0 153 103 110 194 -10 21 -41 56 -68 79 -91 76 -178 161 -248 243 l-69
82 10 98 c21 200 65 417 141 694 58 210 177 591 189 603 7 8 86 -382 114 -568
122 -811 122 -1627 0 -2425 -178 -1163 -599 -2251 -1261 -3252 -122 -184 -402
-567 -439 -599 -10 -10 -98 -47 -194 -84 -475 -183 -884 -379 -1147 -550 l-82
-54 -128 36 c-70 19 -173 56 -228 81 -112 51 -173 62 -228 39 -53 -23 -79 -69
-74 -132 4 -43 10 -54 46 -86 49 -44 120 -64 194 -56 l51 6 -75 -43 c-104 -62
-160 -121 -166 -179 -6 -54 15 -91 60 -106 52 -18 119 9 219 86 l58 44 -27
-53 c-51 -99 -30 -223 42 -256 61 -28 136 -7 176 50 20 27 24 50 31 162 11
184 49 385 79 408 81 67 422 231 724 351 221 87 534 199 546 195 15 -5 -255
-303 -455 -503 -531 -529 -1127 -977 -1781 -1341 -170 -94 -513 -264 -653
-324 l-102 -43 -178 86 c-802 388 -1685 534 -2507 416 -152 -22 -312 -56 -320
-68 -7 -13 154 -172 236 -234 281 -210 666 -337 1174 -388 263 -26 735 -13
1085 30 80 10 146 17 148 16 5 -4 -264 -96 -428 -146 -594 -181 -1164 -287
-1830 -341 -233 -18 -888 -15 -1140 5 -914 76 -1748 278 -2535 615 l-140 60
-7 59 c-3 32 -11 112 -18 178 -77 794 -391 1597 -870 2224 -102 134 -270 324
-322 363 l-35 27 -21 -77 c-39 -143 -46 -205 -46 -377 0 -192 19 -316 78 -523
87 -302 259 -652 488 -995 163 -243 415 -560 597 -750 62 -64 86 -94 69 -88
-50 19 -437 216 -568 289 -187 104 -416 246 -600 370 -148 100 -459 329 -528
389 l-32 28 29 145 c72 355 113 703 114 970 1 339 -55 519 -183 588 -93 50
-253 8 -354 -94 -80 -79 -126 -206 -126 -345 0 -262 147 -685 379 -1094 40
-71 54 -102 39 -89 -13 11 -79 70 -148 130 -169 147 -454 428 -609 599 -183
202 -300 342 -306 368 -2 12 -14 81 -25 152 -50 307 -142 720 -214 954 l-34
114 71 85 c40 46 77 91 82 99 6 8 51 50 101 93 96 82 124 124 124 185 0 55
-25 94 -76 116 -37 17 -50 18 -85 9 -57 -16 -124 -80 -147 -142 l-19 -51 -6
69 c-15 155 -66 244 -142 244 -20 0 -45 -5 -56 -10 -48 -26 -62 -120 -34 -235
20 -82 19 -84 -13 -42 -39 51 -78 79 -131 92 -141 36 -227 -95 -141 -214 13
-19 58 -49 123 -81 56 -28 152 -87 213 -130 l112 -79 41 -168 c60 -247 118
-584 156 -903 l7 -55 -124 165 c-677 909 -1164 1985 -1408 3112 l-21 97 74 88
c536 637 892 1445 998 2263 21 167 36 460 25 504 l-7 27 -47 -28 c-374 -214
-644 -587 -832 -1153 -129 -385 -206 -812 -246 -1365 l-8 -100 -18 110 c-56
347 -87 698 -95 1105 -29 1468 339 2890 1079 4176 l81 141 176 17 c216 22 605
77 783 111 173 34 451 105 555 143 l81 30 99 -65 c120 -80 158 -109 251 -195
76 -71 112 -86 176 -74 76 15 120 89 98 165 -15 49 -86 115 -141 132 -46 14
-45 29 2 29 41 0 123 22 165 44 47 25 68 77 50 125 -26 70 -119 88 -269 53
l-77 -19 49 49 c88 88 100 202 28 262 -40 34 -72 41 -119 27 -55 -16 -103 -75
-130 -157 -21 -66 -132 -290 -171 -345 -54 -77 -676 -188 -1279 -229 -85 -5
-181 -12 -212 -15 -32 -3 -58 -2 -58 2 0 3 61 98 136 210 240 361 510 706 775
990 l58 63 143 -35 c597 -145 1199 -168 1798 -68 358 59 777 187 1035 315 119
60 118 54 23 116 -438 288 -1063 328 -1883 120 -283 -71 -703 -219 -960 -337
l-90 -42 110 112 c235 238 549 510 850 736 177 134 573 403 592 403 5 0 65
-32 134 -71 181 -104 462 -246 629 -317 498 -211 788 -227 883 -49 32 61 31
207 -2 291 -32 80 -123 172 -214 215 -154 73 -384 108 -652 98 -158 -6 -400
-33 -545 -61 -41 -8 -76 -13 -78 -11 -6 5 294 170 478 262 206 104 411 196
632 285 l148 59 182 -30 c422 -70 732 -101 1048 -107 l245 -5 96 -84 c52 -46
122 -117 155 -158 80 -102 123 -130 192 -124 163 12 159 217 -7 300 l-48 23
88 11 c113 15 177 45 203 97 16 33 17 41 4 74 -25 69 -102 87 -242 57 -38 -8
-72 -13 -74 -10 -3 3 0 5 6 5 22 0 95 74 113 115 55 120 -28 240 -141 206 -61
-18 -93 -52 -149 -158 -28 -54 -90 -151 -138 -215 l-87 -118 -70 0 c-107 0
-388 27 -583 55 -165 25 -556 96 -617 113 -24 7 1 17 180 75 700 225 1378 349
2111 387 192 10 723 4 928 -10z m-4986 -148 c59 -27 73 -63 68 -172 -6 -151
-79 -338 -247 -630 -75 -129 -291 -462 -297 -456 -2 2 12 44 31 94 99 260 236
758 224 818 -10 52 -224 -539 -291 -806 l-35 -135 -7 49 c-12 80 2 549 20 666
46 300 146 500 280 565 77 37 184 40 254 7z m3483 -87 c23 -51 -31 -119 -142
-175 -33 -17 -60 -28 -60 -26 0 12 96 184 113 204 28 31 74 30 89 -3z m166
-281 c33 -9 27 -33 -15 -50 -47 -20 -202 -35 -268 -27 l-49 6 39 14 c50 17
180 50 220 56 17 2 35 5 40 5 6 1 20 -1 33 -4z m-178 -269 c59 -31 92 -95 64
-126 -36 -40 -77 -16 -168 98 l-66 82 71 -20 c39 -11 84 -26 99 -34z m-5123
-92 c18 -44 36 -223 26 -273 -6 -35 -6 -35 -30 35 -32 95 -56 220 -49 250 9
37 35 30 53 -12z m359 -110 c10 -39 -10 -67 -103 -145 l-83 -69 7 33 c24 124
80 208 140 208 27 0 34 -5 39 -27z m-609 -52 c28 -18 80 -94 110 -162 11 -26
8 -25 -85 23 -104 54 -132 78 -132 112 0 48 51 61 107 27z m3231 -96 c288 -47
434 -167 436 -360 1 -116 -42 -167 -153 -181 -126 -16 -397 58 -696 191 -147
65 -467 226 -461 232 2 2 68 -12 147 -31 79 -19 207 -46 284 -60 191 -35 515
-73 515 -62 0 10 -251 85 -401 120 -166 38 -402 81 -513 92 -38 4 -62 10 -55
14 16 9 205 37 324 49 144 15 472 12 573 -4z m8864 -115 c543 -37 975 -161
1283 -368 88 -59 235 -185 235 -202 0 -4 -62 8 -137 27 -411 103 -1093 251
-1598 347 -331 62 -823 146 -863 146 -20 1 -23 3 -12 9 14 8 302 37 445 44
152 8 508 6 647 -3z m-927 -114 c616 -153 1708 -371 2290 -457 l90 -13 -50 -8
c-27 -4 -133 -12 -235 -17 -692 -35 -1412 115 -2065 428 -139 67 -228 117
-190 107 11 -3 83 -21 160 -40z m-12002 -538 c76 -325 101 -592 94 -983 -9
-451 -60 -780 -187 -1200 -43 -142 -135 -394 -151 -409 -14 -15 -11 36 16 257
55 447 119 1162 150 1672 16 272 35 665 35 733 0 72 15 47 43 -70z m-82 -79
c-73 -556 -155 -1476 -181 -2044 -6 -132 -14 -256 -17 -275 -6 -35 -6 -35 -19
20 -28 118 -66 343 -89 526 -91 709 -32 1293 170 1695 46 91 145 242 153 234
2 -2 -6 -72 -17 -156z m3719 -63 c119 -16 235 -44 342 -82 83 -30 228 -102
228 -114 0 -5 -48 -28 -107 -53 -695 -292 -1556 -380 -2348 -241 -151 26 -219
41 -195 43 8 1 139 8 290 16 671 37 1364 99 2015 181 488 60 444 64 -300 23
-555 -30 -1164 -82 -1695 -144 -157 -18 -286 -32 -287 -31 -7 6 318 127 498
187 325 107 693 191 959 218 139 14 484 12 600 -3z m11448 -628 c37 -37 -17
-109 -101 -132 -29 -8 -72 -18 -97 -21 l-45 -6 86 85 c69 69 92 86 116 86 16
0 34 -5 41 -12z m57 -330 c47 -16 55 -34 20 -50 -20 -9 -43 -9 -102 0 -100 16
-213 50 -213 64 0 15 242 3 295 -14z m-1767 -268 c120 -451 178 -827 189
-1220 15 -528 -74 -914 -279 -1218 -27 -41 -51 -72 -53 -70 -2 2 1 50 6 108
14 161 47 718 58 975 18 407 34 1194 28 1405 -3 112 -2 198 3 190 4 -8 26 -85
48 -170z m-94 5 c-37 -466 -64 -1161 -72 -1875 l-7 -555 -37 150 c-77 312
-107 545 -115 895 -11 513 49 939 204 1438 19 63 36 112 37 110 2 -1 -2 -75
-10 -163z m-11036 133 c18 -18 14 -67 -9 -104 -17 -28 -101 -96 -156 -128 -6
-3 -1 20 12 51 13 32 31 80 40 107 10 27 26 57 36 67 22 22 59 25 77 7z
m12629 -55 c59 -39 93 -86 93 -130 0 -34 -16 -53 -45 -53 -40 0 -57 27 -142
229 -7 17 17 5 94 -46z m-2299 -296 c28 -26 29 -72 2 -87 -47 -25 -127 33
-184 131 -14 25 -26 48 -26 51 0 11 185 -74 208 -95z m-10099 54 c22 -14 7
-36 -35 -50 -39 -13 -294 -29 -294 -18 0 7 145 55 201 66 60 12 111 13 128 2z
m9576 -70 c-24 -122 -71 -186 -132 -179 -25 3 -28 8 -31 42 -3 38 0 42 85 122
48 46 89 84 89 84 1 0 -4 -31 -11 -69z m231 -122 c26 -89 28 -149 7 -156 -34
-11 -68 101 -77 254 l-6 98 26 -55 c14 -30 37 -93 50 -141z m-10031 -50 c99
-18 155 -58 155 -111 0 -33 -28 -51 -66 -42 -15 4 -64 42 -110 85 -92 87 -91
89 21 68z m12415 -280 c533 -67 857 -225 911 -442 23 -96 -8 -223 -65 -260
-143 -94 -520 105 -1043 549 -62 53 -115 100 -118 104 -2 4 55 -23 128 -59
228 -115 498 -227 688 -285 75 -23 81 -23 59 -6 -46 36 -238 141 -392 214
-124 60 -263 118 -498 210 -26 10 168 -5 330 -25z m-240 -1489 c-35 -389 -138
-629 -303 -706 -41 -19 -69 -24 -130 -24 -124 0 -177 37 -193 136 -20 125 89
405 281 724 95 158 265 413 271 407 2 -2 -6 -28 -17 -58 -85 -218 -183 -546
-219 -725 -12 -60 -23 -115 -25 -121 -3 -7 -2 -13 1 -13 10 0 92 186 148 337
51 138 142 432 177 573 13 52 14 44 17 -175 2 -126 -2 -286 -8 -355z m2058
-322 c32 -32 6 -75 -61 -103 -37 -15 -197 -22 -197 -7 0 4 42 33 92 65 93 58
141 70 166 45z m-81 -309 c55 -21 103 -54 103 -71 0 -7 -20 -9 -56 -6 -40 3
-81 18 -147 52 -51 25 -103 55 -117 66 -24 18 -22 18 70 -2 52 -11 118 -29
147 -39z m-1097 -149 c358 -228 665 -474 930 -746 379 -388 579 -736 635
-1103 8 -52 13 -96 11 -98 -2 -2 -46 53 -100 121 -405 523 -1039 1274 -1461
1731 -169 183 -184 201 -165 190 8 -5 76 -48 150 -95z m911 -62 c23 -44 25
-111 4 -128 -22 -19 -63 -4 -80 30 -8 16 -20 63 -25 103 -6 41 -15 90 -20 108
-10 33 -9 33 46 -21 31 -30 64 -72 75 -92z m-961 -28 c398 -510 964 -1172
1506 -1759 l59 -65 -45 27 c-76 44 -270 182 -370 262 -496 396 -917 928 -1195
1510 -76 159 -92 197 -77 180 5 -5 60 -75 122 -155z m-14980 -606 c0 -3 -29
-72 -64 -152 -279 -639 -561 -1366 -818 -2107 l-80 -230 7 134 c7 166 37 426
70 623 117 694 335 1217 639 1535 108 113 246 224 246 197z m-15 -298 c-79
-734 -369 -1462 -831 -2087 -88 -119 -102 -136 -81 -94 34 69 208 483 327 780
205 514 485 1276 576 1570 l19 60 3 -40 c2 -21 -4 -107 -13 -189z m14225 -746
c-56 -111 -124 -165 -175 -142 -32 15 -34 61 -4 88 20 18 186 111 202 113 4 1
-6 -26 -23 -59z m443 -74 c26 -21 55 -49 64 -62 21 -32 10 -72 -22 -80 -53
-13 -118 60 -145 166 -6 25 -14 54 -17 65 -4 15 4 12 33 -16 22 -19 61 -52 87
-73z m-262 -17 c16 -158 -5 -278 -43 -241 -19 19 -16 170 7 270 10 45 20 81
21 79 2 -2 9 -50 15 -108z m1074 -154 c208 -102 336 -185 435 -284 91 -91 130
-160 137 -242 10 -102 -50 -211 -123 -225 -87 -16 -251 115 -416 331 -75 100
-218 314 -274 410 -27 48 -23 45 81 -57 163 -158 346 -308 452 -371 l38 -22
-22 30 c-69 96 -295 320 -463 459 -52 43 -97 81 -100 83 -15 14 106 -39 255
-112z m-17499 -731 c343 -574 921 -1459 1183 -1814 26 -35 26 -35 -29 10 -264
215 -629 574 -813 800 -396 485 -598 933 -597 1324 l0 111 32 -55 c17 -30 118
-199 224 -376z m-76 280 c470 -407 878 -988 1129 -1606 48 -119 140 -386 155
-453 4 -16 -78 112 -182 285 -307 513 -693 1111 -1022 1585 -84 121 -165 236
-179 254 -35 47 -14 33 99 -65z m715 -2419 c107 -35 280 -119 429 -207 117
-69 286 -178 276 -178 -3 0 -59 18 -125 41 -186 62 -422 121 -582 143 -41 6
-14 -11 90 -57 130 -57 344 -129 512 -172 170 -43 146 -49 -154 -42 -301 7
-446 33 -584 105 -78 40 -151 115 -167 170 -26 95 -2 193 54 218 44 21 155 11
251 -21z m1687 -231 c20 -34 41 -193 36 -274 l-3 -55 -37 110 c-37 110 -57
223 -43 245 10 17 28 7 47 -26z m358 -105 c7 -11 9 -31 6 -43 -6 -25 -186
-195 -186 -176 0 29 34 138 53 173 35 63 105 88 127 46z m-593 -78 c25 -18 52
-53 76 -99 20 -38 37 -72 37 -74 0 -12 -211 105 -220 122 -39 72 31 106 107
51z m-1892 -667 c511 -263 1457 -692 2085 -945 144 -59 229 -97 205 -94 -22 3
-96 12 -165 21 -373 45 -765 134 -1085 244 -477 165 -849 398 -1056 660 -64
82 -130 186 -113 179 5 -2 63 -32 129 -65z m200 25 c676 -112 1378 -434 1952
-894 71 -56 134 -109 142 -118 7 -9 -133 55 -310 142 -600 294 -1472 681
-1934 858 -49 19 -92 37 -95 40 -7 8 105 -5 245 -28z m3375 -547 c37 -27 77
-106 97 -192 24 -102 24 -503 0 -700 -21 -167 -59 -421 -64 -417 -2 2 -10 73
-18 158 -28 273 -88 616 -129 739 -15 43 -16 37 -11 -130 2 -96 11 -233 20
-305 17 -145 61 -419 76 -479 6 -21 8 -40 6 -43 -3 -2 -34 53 -70 124 -187
369 -278 657 -278 880 -1 208 66 319 224 375 59 21 109 17 147 -10z m843 -472
c240 -607 584 -1391 829 -1885 89 -182 92 -183 -95 39 -477 569 -797 1152
-908 1656 -36 165 -37 556 -1 614 3 5 15 -18 28 -50 12 -32 79 -201 147 -374z
m45 181 c287 -365 540 -843 687 -1301 78 -244 161 -619 180 -815 7 -75 13 -87
-131 275 -197 499 -519 1237 -734 1685 -40 83 -94 197 -122 254 l-49 105 43
-49 c24 -26 80 -96 126 -154z m10703 -526 c19 -227 16 -730 -4 -930 -57 -554
-187 -953 -409 -1248 -48 -65 -167 -192 -172 -185 -2 1 37 163 86 358 174 695
320 1392 459 2200 l13 75 7 -55 c4 -30 13 -127 20 -215z m-136 -55 c-88 -356
-202 -867 -284 -1275 -57 -287 -170 -905 -172 -949 -5 -69 -19 114 -25 314
-18 609 99 1217 342 1787 52 121 203 427 209 421 2 -2 -30 -136 -70 -298z
m-13771 -75 l98 -65 -90 0 c-50 0 -103 5 -119 11 -87 33 -100 119 -18 119 20
0 62 -21 129 -65z m11935 -138 l93 -45 -51 -11 c-29 -6 -81 -11 -116 -11 -54
0 -68 4 -94 26 -36 30 -39 46 -10 75 28 28 60 22 178 -34z m-11824 -93 c-11
-9 -65 -38 -120 -64 -110 -54 -186 -69 -193 -38 -5 25 82 65 202 93 123 29
138 30 111 9z m11915 -150 c-70 -71 -186 -154 -217 -154 -67 0 15 85 153 157
55 29 103 53 109 53 5 0 -15 -25 -45 -56z m-11828 -49 c-26 -138 -32 -154 -58
-171 -20 -14 -30 -15 -49 -6 -35 16 -35 84 0 138 22 34 116 128 121 121 1 -1
-5 -38 -14 -82z m11989 -132 c-5 -99 -10 -125 -25 -142 -55 -61 -111 23 -76
115 10 24 102 157 105 151 1 -1 -1 -57 -4 -124z m2737 21 c82 -30 93 -114 14
-114 -51 0 -103 37 -152 110 -22 32 -40 61 -40 64 0 3 30 -6 68 -20 37 -13 86
-32 110 -40z m-279 -76 c71 -154 93 -258 56 -258 -23 0 -53 57 -70 135 -17 75
-34 205 -28 205 3 0 21 -37 42 -82z m-203 -4 c-8 -79 -27 -129 -63 -166 -59
-61 -123 -6 -80 68 11 21 138 162 146 163 2 1 1 -29 -3 -65z m-12386 -368
c174 -31 317 -63 504 -113 l140 -38 -310 -6 c-285 -6 -572 -28 -628 -49 -30
-10 56 -20 275 -30 169 -7 504 0 661 15 l63 6 -60 -26 c-176 -77 -491 -170
-675 -200 -111 -18 -306 -20 -382 -4 -122 26 -211 91 -256 188 -33 72 -36 157
-6 198 26 35 89 71 146 83 82 17 370 4 528 -24z m10555 -346 c76 -383 55 -632
-64 -751 -46 -46 -119 -79 -178 -79 -46 0 -89 26 -109 66 -30 62 -26 244 10
399 43 185 195 637 195 580 0 -11 -4 -52 -9 -91 -28 -215 -35 -678 -9 -632 30
55 77 398 86 633 l6 170 24 -85 c13 -47 34 -141 48 -210z m-3715 -65 c459 -45
877 -150 1290 -325 134 -57 253 -115 215 -106 -97 25 -679 131 -985 180 -500
81 -1225 180 -1472 202 -43 4 -78 10 -78 14 0 7 134 26 279 40 138 13 598 10
751 -5z m2760 -62 c-331 -300 -1132 -1093 -1481 -1468 -113 -121 -224 -240
-248 -265 l-42 -45 32 65 c44 90 169 296 248 410 312 449 723 847 1191 1153
107 70 357 217 369 217 3 0 -28 -30 -69 -67z m27 -85 c-354 -681 -804 -1235
-1231 -1519 -179 -119 -413 -219 -546 -234 l-55 -7 40 38 c22 20 99 91 170
157 449 413 1217 1183 1566 1569 68 75 126 137 127 137 2 1 -30 -63 -71 -141z
m-3772 72 c580 -120 1633 -286 2265 -358 135 -16 236 -31 225 -35 -34 -11
-290 -45 -475 -63 -219 -22 -757 -25 -930 -6 -534 61 -885 190 -1167 430 -54
45 -67 68 -35 58 9 -3 62 -15 117 -26z m-5334 -533 c20 -12 67 -51 105 -85
l69 -64 -35 6 c-19 3 -57 8 -85 12 -97 12 -171 75 -145 123 19 36 43 38 91 8z
m163 -302 c-47 -32 -212 -97 -261 -102 -45 -5 -53 -3 -53 11 0 20 50 52 105
67 51 15 173 37 205 38 24 1 24 1 4 -14z m55 -221 c-36 -105 -54 -140 -78
-154 -27 -14 -37 -13 -55 6 -40 40 0 125 91 191 32 23 61 43 64 43 4 0 -6 -38
-22 -86z"/>
<path d="M7435 16284 c-15 -102 -36 -192 -66 -276 -37 -102 -34 -145 11 -190
23 -22 37 -28 73 -28 37 0 51 6 76 31 35 34 55 98 48 146 l-6 33 38 -47 c21
-27 50 -58 63 -71 34 -31 90 -39 123 -18 58 38 51 104 -20 191 l-44 54 37 -16
c72 -30 160 -1 191 62 12 25 12 35 0 69 -26 72 -48 80 -237 88 -92 3 -193 10
-224 13 l-56 8 -7 -49z m430 -68 c11 -8 16 -19 12 -30 -10 -25 -82 -21 -126 7
l-36 22 40 6 c68 10 91 9 110 -5z m-115 -273 c0 -23 -37 7 -77 64 -60 84 -56
90 12 19 36 -37 65 -75 65 -83z m-261 5 c1 -31 -5 -52 -15 -63 -42 -42 -56 21
-23 103 21 51 24 54 30 32 4 -14 7 -46 8 -72z"/>
<path d="M13605 14636 c-41 -18 -65 -47 -71 -87 -6 -43 12 -77 56 -107 30 -20
44 -23 102 -20 l66 4 -47 -47 c-26 -26 -56 -63 -65 -84 -28 -58 -4 -117 53
-130 39 -8 74 8 129 59 l48 45 -4 -62 c-3 -52 0 -67 20 -97 13 -19 39 -40 60
-48 33 -13 41 -12 75 4 25 13 45 32 57 58 18 36 18 45 5 120 -7 45 -13 141
-13 213 l1 133 -31 4 c-17 3 -75 8 -129 11 -54 4 -131 15 -170 25 -85 23 -102
24 -142 6z m130 -88 c25 -7 45 -15 45 -18 0 -9 -72 -30 -102 -30 -33 0 -63 23
-55 44 8 19 48 21 112 4z m115 -166 c0 -12 -110 -132 -121 -132 -22 0 -5 26
52 81 63 60 69 65 69 51z m155 -147 c8 -71 3 -95 -19 -95 -36 0 -43 71 -14
136 18 38 26 28 33 -41z"/>
<path d="M8645 14016 c-99 -31 -122 -54 -229 -218 -42 -65 -80 -118 -84 -118
-4 0 -101 -9 -217 -20 -115 -12 -282 -23 -370 -25 l-160 -5 -50 62 c-93 115
-184 158 -332 158 -87 0 -129 -15 -167 -60 -29 -36 -29 -60 1 -106 36 -56 223
-114 419 -131 l72 -6 41 -81 c53 -107 80 -239 88 -426 7 -165 -5 -288 -43
-460 -36 -162 -115 -394 -183 -536 l-58 -121 -57 -7 c-102 -13 -186 14 -292
95 -56 43 -90 49 -125 21 -45 -37 -20 -112 52 -157 66 -42 139 -57 260 -53 60
1 108 1 107 -3 -2 -3 -114 -228 -249 -500 -251 -502 -284 -574 -315 -688 l-18
-64 64 -60 c104 -95 90 -100 172 70 39 81 91 195 117 253 25 58 156 322 289
587 l243 482 57 11 c31 6 91 22 132 35 292 93 501 127 570 92 45 -22 61 -71
54 -158 -6 -69 -4 -79 15 -98 48 -48 119 -8 128 71 8 73 -27 177 -76 221 -54
49 -100 62 -208 61 -122 -2 -208 -18 -393 -71 -85 -25 -170 -49 -188 -53 l-32
-8 101 196 c374 722 757 1404 796 1416 10 3 74 12 143 20 69 8 195 24 280 35
383 50 860 96 1170 111 239 12 495 1 628 -26 325 -67 385 -222 190 -487 -60
-81 -66 -124 -24 -166 34 -34 101 -36 143 -5 63 47 133 227 133 344 0 99 -28
167 -99 239 -125 129 -309 178 -697 188 -220 6 -414 -3 -734 -33 -246 -22
-710 -74 -765 -84 -27 -5 -98 -14 -157 -20 -59 -5 -119 -12 -133 -16 l-26 -7
37 59 c20 33 54 82 76 111 44 58 62 128 37 144 -20 12 -87 10 -134 -5z m-1308
-286 c43 -21 90 -51 103 -66 l25 -26 -65 7 c-134 15 -240 42 -272 72 -31 28 6
51 83 52 35 1 66 -9 126 -39z m936 -163 c-94 -149 -261 -445 -519 -919 -38
-70 -70 -125 -72 -124 -1 2 7 57 18 122 28 152 37 403 21 544 -11 87 -47 251
-76 336 -6 20 -3 21 202 29 114 4 240 11 278 15 122 12 157 12 148 -3z"/>
<path d="M3835 13310 c-16 -4 -62 -23 -100 -42 -39 -18 -121 -49 -183 -68 -62
-18 -112 -39 -112 -46 0 -6 11 -61 25 -122 14 -61 25 -131 25 -155 0 -79 18
-149 47 -179 54 -57 144 -44 176 25 22 45 21 75 -1 134 l-18 48 64 -32 c79
-40 129 -43 168 -9 21 18 28 32 28 60 0 44 -35 83 -109 120 l-49 24 39 8 c90
16 145 65 145 129 0 34 -25 81 -47 90 -42 17 -70 21 -98 15z m59 -95 c11 -30
-30 -55 -87 -55 -30 0 -57 3 -61 7 -9 9 92 62 120 63 12 0 24 -7 28 -15z m-86
-246 c60 -29 86 -58 40 -43 -33 10 -110 50 -133 69 -20 16 -19 16 5 10 14 -4
53 -20 88 -36z m-198 -101 c36 -50 43 -118 11 -118 -30 0 -39 20 -43 93 -1 37
-2 67 -1 67 2 0 16 -19 33 -42z"/>
<path d="M9208 12433 c-40 -46 -74 -149 -56 -170 18 -22 63 -15 106 17 81 58
92 108 33 147 -41 28 -63 29 -83 6z"/>
<path d="M9426 12408 c-30 -53 -51 -121 -43 -142 8 -20 49 -21 86 -2 31 16
101 90 101 107 0 24 -24 52 -55 65 -51 21 -62 18 -89 -28z"/>
<path d="M10565 12277 c-120 -40 -205 -120 -205 -195 0 -47 67 -120 177 -193
50 -33 61 -45 54 -57 -19 -34 -195 -180 -272 -226 -162 -97 -353 -155 -463
-141 -182 23 -250 151 -201 380 18 81 10 112 -34 138 -52 31 -145 16 -182 -29
-8 -11 -30 -59 -48 -109 -70 -190 -157 -335 -286 -474 -122 -130 -195 -114
-195 44 0 116 63 268 206 497 80 127 86 153 44 176 -32 17 -137 9 -180 -13
-45 -24 -136 -139 -185 -238 -24 -48 -61 -138 -81 -200 -32 -97 -37 -125 -38
-212 -1 -88 2 -106 24 -150 56 -112 192 -144 329 -78 99 47 243 214 340 393
31 57 41 69 41 49 0 -14 7 -50 16 -80 23 -77 87 -137 179 -168 296 -99 759 53
1004 329 60 67 64 70 77 52 7 -11 18 -41 24 -67 16 -71 -2 -140 -75 -290 -144
-295 -172 -410 -126 -510 35 -77 85 -105 186 -105 239 0 594 161 1055 479 240
165 510 385 510 416 0 51 -44 58 -86 14 -37 -39 -288 -228 -456 -343 -310
-212 -587 -369 -756 -430 -92 -33 -173 -35 -202 -6 -49 49 -16 184 95 395 114
217 145 359 98 450 -20 38 -101 122 -152 157 l-23 16 27 67 c48 121 31 207
-49 249 -49 24 -137 30 -191 13z m186 -113 c11 -13 9 -27 -11 -85 -13 -39 -26
-72 -30 -74 -3 -2 -28 13 -56 33 -75 57 -68 112 18 132 51 12 65 11 79 -6z"/>
<path d="M16386 10470 c-39 -12 -63 -36 -76 -76 -23 -68 44 -146 136 -160 l44
-6 -57 -34 c-75 -45 -103 -79 -103 -125 0 -47 26 -78 70 -85 28 -5 49 2 102
29 l68 35 -14 -27 c-53 -102 -9 -211 85 -211 43 0 94 37 111 79 5 14 14 62 19
105 4 44 23 131 40 193 18 62 30 115 28 116 -2 2 -56 23 -119 46 -64 23 -141
57 -172 75 -51 31 -76 42 -118 51 -8 2 -28 -1 -44 -5z m114 -115 l55 -35 -61
0 c-69 0 -113 23 -101 53 10 26 47 20 107 -18z m75 -194 c-33 -30 -132 -91
-149 -91 -18 0 -19 2 -5 15 17 17 139 84 154 85 6 0 6 -3 0 -9z m109 -178 c-8
-71 -12 -80 -39 -85 -22 -3 -31 26 -21 67 6 24 55 89 62 82 2 -2 1 -31 -2 -64z"/>
<path d="M5094 10339 c-36 -56 -75 -153 -81 -199 -6 -44 12 -62 60 -62 97 0
253 148 228 215 -14 36 -82 78 -135 84 -43 5 -45 4 -72 -38z"/>
<path d="M13003 10064 c-139 -37 -223 -114 -223 -204 0 -41 73 -119 169 -180
38 -25 70 -48 70 -51 2 -13 -203 -200 -283 -260 -208 -155 -524 -294 -760
-335 -126 -22 -276 -16 -333 14 -85 44 -94 151 -25 290 l38 77 115 13 c201 22
353 79 438 163 70 70 73 159 7 217 -49 43 -99 57 -196 56 -71 0 -98 -6 -166
-32 -139 -55 -213 -116 -403 -331 -35 -40 -119 -123 -185 -183 -315 -287 -570
-423 -683 -365 -68 35 -113 115 -164 292 -56 192 -84 239 -147 251 -47 9 -108
-11 -167 -56 -99 -75 -238 -215 -353 -358 -134 -167 -237 -277 -251 -267 -16
9 -5 53 70 275 62 187 109 385 109 462 0 50 -29 105 -65 122 -114 55 -279 -27
-501 -248 -116 -116 -429 -490 -620 -741 -34 -44 -72 -89 -84 -100 l-23 -20 8
25 c29 98 205 440 335 650 213 347 241 395 238 414 -2 11 -15 27 -30 35 -22
13 -36 13 -83 3 -102 -21 -136 -49 -229 -190 -175 -265 -418 -712 -467 -861
-57 -171 -3 -263 135 -232 80 18 149 76 283 242 65 80 194 240 287 355 267
328 524 572 582 550 18 -7 20 -1 -78 -311 -95 -302 -117 -409 -99 -489 23
-105 101 -125 217 -55 74 44 219 186 324 318 104 130 264 297 304 318 27 14
31 14 42 -2 7 -10 20 -52 29 -94 40 -187 93 -298 171 -357 110 -84 298 -69
519 41 124 61 215 127 377 270 62 54 109 92 106 83 -46 -120 15 -265 134 -319
49 -22 64 -24 218 -23 129 1 188 6 270 23 272 58 582 188 792 333 93 64 248
198 283 244 14 19 30 34 35 34 28 0 51 -109 38 -182 -5 -29 -45 -127 -88 -218
-43 -91 -91 -201 -105 -245 -49 -146 -22 -274 67 -322 45 -24 196 -21 300 6
232 60 581 250 964 523 168 120 414 326 414 347 0 10 -8 26 -19 35 -17 16 -21
15 -67 -24 -291 -240 -776 -563 -1035 -690 -163 -79 -236 -105 -305 -105 -73
0 -94 21 -94 95 0 75 27 152 115 323 87 169 115 254 115 346 0 88 -34 148
-125 221 -46 38 -64 59 -59 69 68 169 57 260 -40 304 -49 23 -106 27 -163 11z
m167 -119 c10 -12 8 -27 -10 -78 -12 -34 -26 -66 -30 -71 -5 -5 -31 8 -60 29
-45 33 -51 41 -48 69 2 24 11 35 38 48 43 22 93 23 110 3z m-1016 -204 c9 -8
16 -27 16 -44 0 -44 -54 -89 -149 -126 -79 -31 -247 -66 -279 -59 -13 3 7 28
73 94 113 113 192 158 272 151 28 -2 59 -9 67 -16z"/>
<path d="M4843 9915 c-58 -25 -296 -372 -408 -594 -118 -235 -131 -413 -34
-482 40 -28 124 -40 204 -28 192 27 393 131 728 375 71 52 131 94 132 92 1 -2
-33 -66 -78 -143 -228 -398 -300 -593 -252 -685 30 -59 134 -64 218 -10 65 41
103 82 267 285 286 357 435 532 545 641 150 150 275 231 275 177 0 -10 -36
-131 -79 -269 -93 -292 -111 -366 -113 -449 -4 -272 216 -203 514 158 175 213
325 367 359 367 16 0 39 -60 58 -152 25 -120 47 -176 94 -241 93 -126 219
-158 413 -102 174 51 336 151 541 333 266 237 326 307 277 326 -34 13 -50 2
-167 -112 -378 -366 -662 -524 -788 -438 -44 30 -92 103 -113 171 -70 232 -93
292 -121 323 -42 47 -95 53 -167 19 -70 -32 -251 -198 -354 -324 -166 -203
-224 -271 -266 -308 l-43 -40 -3 33 c-2 20 23 109 67 239 159 472 147 630 -46
610 -114 -12 -240 -93 -413 -267 -100 -99 -441 -509 -639 -767 -110 -144 -102
-106 44 192 86 176 137 264 368 641 51 83 87 152 87 167 0 48 -55 59 -148 32
-61 -18 -111 -59 -158 -129 -45 -68 -323 -295 -529 -433 -150 -100 -223 -142
-310 -178 -179 -74 -250 -32 -211 126 34 135 192 420 372 673 90 126 98 151
54 173 -33 17 -137 16 -177 -2z"/>
<path d="M11361 7196 c-91 -30 -150 -117 -151 -223 0 -131 47 -179 220 -223
154 -39 197 -78 187 -169 -12 -109 -173 -167 -273 -99 -24 17 -57 56 -80 96
-4 8 -74 -33 -74 -43 0 -21 59 -94 101 -124 61 -44 136 -57 218 -37 85 21 139
60 174 127 25 47 28 62 24 116 -9 115 -61 163 -223 206 -50 14 -105 32 -122
41 -92 48 -88 187 8 236 91 46 161 14 236 -108 3 -6 62 27 69 38 14 23 -68
121 -128 152 -51 26 -130 32 -186 14z"/>
<path d="M4627 6908 c-4 -243 -7 -301 -22 -340 -20 -56 -71 -104 -120 -114
-34 -6 -35 -8 -35 -51 l0 -44 38 7 c84 15 154 72 194 159 22 48 23 61 26 363
l3 312 -39 0 -40 0 -5 -292z"/>
<path d="M4997 7194 c-4 -4 -7 -189 -7 -411 l0 -403 235 0 235 0 0 40 0 40
-190 0 -190 0 0 110 0 110 190 0 190 0 0 45 0 45 -190 0 -190 0 0 170 0 170
191 0 190 0 -3 43 -3 42 -226 3 c-124 1 -228 -1 -232 -4z"/>
<path d="M5707 7194 c-4 -4 -7 -189 -7 -411 l0 -403 45 0 45 0 2 330 3 330
198 -330 198 -330 50 0 49 0 0 410 0 410 -40 0 -40 0 -2 -337 -3 -337 -200
335 -201 334 -45 3 c-25 2 -48 0 -52 -4z"/>
<path d="M6550 6790 l0 -410 45 0 45 0 2 327 3 327 195 -327 195 -326 53 -1
52 0 0 411 0 410 -42 -3 -43 -3 -5 -329 -5 -330 -199 332 -199 332 -48 0 -49
0 0 -410z"/>
<path d="M7437 7194 c-4 -4 -7 -189 -7 -411 l0 -403 45 0 45 0 -2 408 -3 407
-35 3 c-20 2 -39 0 -43 -4z"/>
<path d="M7817 7194 c-4 -4 -7 -189 -7 -411 l0 -403 45 0 45 0 0 150 0 150
188 2 187 3 3 43 3 42 -190 0 -191 0 0 170 0 170 191 0 190 0 -3 43 -3 42
-226 3 c-124 1 -228 -1 -232 -4z"/>
<path d="M8527 7194 c-4 -4 -7 -189 -7 -411 l0 -403 235 0 235 0 0 40 0 40
-190 0 -190 0 0 110 0 110 190 0 190 0 0 45 0 45 -190 0 -190 0 0 170 0 170
191 0 190 0 -3 43 -3 42 -226 3 c-124 1 -228 -1 -232 -4z"/>
<path d="M9237 7193 c-4 -3 -7 -188 -7 -410 l0 -403 45 0 45 0 0 150 0 150 59
0 60 0 116 -150 116 -150 54 0 55 0 -122 157 c-67 86 -117 158 -111 160 48 16
121 74 148 117 27 44 30 58 30 126 0 68 -3 82 -30 126 -39 62 -113 108 -199
123 -69 12 -249 15 -259 4z m315 -116 c66 -32 88 -67 88 -137 0 -110 -67 -160
-226 -168 l-94 -5 0 173 0 173 90 -5 c69 -4 102 -11 142 -31z"/>
<path d="M11890 7188 c0 -8 65 -191 145 -408 80 -216 145 -395 145 -397 0 -2
22 -3 48 -3 l48 0 143 388 c78 214 145 399 148 410 5 20 1 22 -36 22 -51 0
-38 26 -186 -380 -59 -162 -111 -298 -114 -302 -3 -4 -62 147 -131 335 l-125
342 -42 3 c-31 2 -43 -1 -43 -10z"/>
<path d="M12800 6790 l0 -410 230 0 230 0 0 40 0 40 -190 0 -190 0 0 110 0
110 190 0 190 0 0 45 0 45 -190 0 -190 0 0 170 0 170 190 0 190 0 0 45 0 45
-230 0 -230 0 0 -410z"/>
<path d="M13510 6790 l0 -410 40 0 40 0 2 332 3 332 199 -332 199 -332 53 0
54 0 -2 408 -3 407 -42 3 -43 3 -2 -335 -3 -335 -192 322 c-106 178 -198 328
-205 335 -7 7 -31 12 -55 12 l-43 0 0 -410z"/>
<path d="M10324 7071 c-91 -41 -130 -154 -87 -252 l20 -45 -22 -16 c-34 -26
-75 -115 -75 -162 0 -23 11 -64 24 -92 41 -89 128 -136 254 -137 62 0 81 4
132 31 l60 31 29 -25 c24 -20 40 -24 92 -24 l64 0 -69 63 c-66 60 -69 64 -55
87 10 18 14 65 14 165 l0 140 -97 3 -98 3 0 -46 0 -45 55 0 55 0 0 -84 c0 -47
-4 -87 -8 -90 -10 -6 -254 213 -277 248 -38 58 -35 131 7 161 42 29 108 14
184 -40 19 -14 22 -13 49 15 28 29 28 30 10 50 -10 11 -45 33 -78 50 -70 35
-123 38 -183 11z m133 -488 l103 -93 -27 -17 c-37 -24 -155 -24 -205 1 -90 44
-105 165 -28 223 17 13 8 20 157 -114z"/>
<path d="M7695 5818 c-2 -7 -6 -146 -7 -308 -3 -284 -4 -297 -25 -337 -26 -48
-53 -69 -105 -84 -36 -9 -38 -12 -38 -49 0 -34 3 -40 21 -40 93 0 185 79 218
185 19 61 21 92 21 356 l0 289 -40 0 c-24 0 -43 -5 -45 -12z"/>
<path d="M8040 5583 c0 -321 18 -401 109 -496 62 -67 102 -82 211 -82 111 0
152 16 214 86 86 95 106 187 106 502 l0 237 -45 0 -45 0 0 -236 c0 -264 -11
-342 -60 -416 -82 -123 -255 -125 -337 -4 -52 76 -56 101 -62 386 l-6 265 -42
3 -43 3 0 -248z"/>
<path d="M8940 5420 l0 -410 230 0 230 0 0 45 0 45 -190 0 -190 0 0 365 0 365
-40 0 -40 0 0 -410z"/>
<path d="M9660 5421 l0 -411 45 0 45 0 -2 408 -3 407 -42 3 -43 3 0 -410z"/>
<path d="M6249 5744 c-31 -9 -60 -28 -88 -59 -75 -82 -107 -194 -99 -348 12
-207 111 -337 258 -337 104 0 182 63 231 187 19 49 23 78 23 183 1 107 -2 135
-23 195 -31 90 -102 165 -173 183 -58 15 -71 14 -129 -4z m149 -103 c17 -12
43 -47 59 -79 26 -54 28 -64 27 -187 0 -143 -9 -176 -65 -239 -60 -69 -142
-66 -204 7 -51 60 -68 126 -63 256 3 92 7 114 31 164 51 103 137 134 215 78z"/>
<path d="M11268 5744 c-65 -20 -129 -93 -160 -182 -19 -57 -23 -86 -22 -192 0
-105 4 -134 23 -183 49 -124 127 -187 231 -187 147 0 246 130 258 337 11 209
-64 370 -191 408 -61 18 -78 18 -139 -1z m144 -99 c23 -16 47 -46 65 -82 24
-50 28 -72 31 -164 5 -130 -12 -196 -63 -256 -87 -101 -211 -59 -258 88 -21
64 -22 218 -3 283 41 134 140 191 228 131z"/>
<path d="M12618 5748 c-123 -33 -207 -206 -195 -403 13 -211 98 -333 238 -343
182 -13 289 147 277 409 -7 130 -33 203 -96 271 -63 67 -137 89 -224 66z m133
-101 c76 -51 119 -197 99 -338 -17 -122 -65 -198 -136 -218 -71 -20 -133 20
-176 114 -20 44 -23 65 -23 175 1 131 13 178 62 237 45 54 119 67 174 30z"/>
<path d="M10616 5734 c-32 -10 -64 -31 -97 -64 -27 -27 -49 -53 -49 -58 0 -5
15 -21 34 -36 l34 -26 16 25 c41 62 105 96 154 81 41 -13 72 -56 72 -100 0
-53 -18 -83 -178 -299 -109 -147 -132 -185 -132 -213 l0 -34 200 0 200 0 0 45
0 44 -136 3 -135 3 103 140 c128 174 144 198 158 257 40 158 -89 280 -244 232z"/>
<path d="M11965 5736 c-56 -18 -93 -44 -127 -90 l-28 -39 32 -28 33 -27 33 39
c57 66 106 83 162 54 37 -19 52 -48 52 -97 -1 -50 -10 -64 -175 -287 -111
-150 -137 -191 -137 -218 l0 -33 200 0 200 0 0 45 0 44 -135 3 -134 3 114 155
c148 201 179 282 141 373 -17 43 -76 93 -123 106 -47 13 -57 13 -108 -3z"/>
<path d="M5633 5723 c-39 -13 -43 -18 -43 -49 0 -33 1 -34 40 -34 l40 0 0
-269 0 -270 -47 -3 -48 -3 -3 -42 -3 -43 145 0 146 0 0 45 0 45 -50 0 -50 0 0
320 0 320 -42 -1 c-24 0 -62 -7 -85 -16z"/>
<path d="M4783 5615 c-83 -36 -81 -166 3 -201 77 -32 154 18 154 100 0 50 -21
83 -66 102 -41 17 -50 17 -91 -1z m75 -98 c4 -20 -25 -34 -40 -19 -15 15 -1
44 19 40 10 -2 19 -11 21 -21z"/>
<path d="M13664 5623 c-12 -2 -34 -17 -49 -33 -23 -24 -28 -39 -28 -75 0 -38
5 -52 31 -77 58 -59 157 -38 182 38 30 90 -42 168 -136 147z m54 -106 c4 -20
-25 -34 -40 -19 -15 15 -1 44 19 40 10 -2 19 -11 21 -21z"/>
<path d="M6811 5084 c-37 -26 -21 -74 26 -74 29 0 48 33 34 59 -15 27 -35 32
-60 15z"/>
<path d="M14814 4330 c-30 -12 -62 -56 -69 -94 -7 -35 16 -109 43 -140 16 -19
16 -19 -3 -11 -98 39 -123 46 -155 47 -63 1 -100 -34 -100 -92 0 -32 51 -79
112 -104 56 -22 65 -36 26 -36 -33 0 -98 -40 -119 -73 -27 -42 -20 -101 15
-136 22 -21 36 -26 79 -26 44 0 64 7 131 47 44 26 129 67 188 90 82 33 107 47
102 58 -25 67 -74 249 -82 306 -12 86 -33 129 -75 154 -34 21 -59 24 -93 10z
m64 -93 c6 -7 14 -33 17 -57 4 -25 9 -56 11 -70 l6 -25 -27 25 c-54 50 -77
140 -36 140 10 0 23 -6 29 -13z m-148 -222 c63 -32 90 -51 58 -40 -111 34
-148 49 -158 61 -23 26 26 16 100 -21z m-10 -235 c-72 -44 -82 -47 -100 -25
-10 12 -10 18 1 31 20 24 48 33 109 33 l55 1 -65 -40z"/>
<path d="M5674 17210 c-46 -18 -94 -102 -94 -164 0 -11 -12 3 -26 33 -40 79
-86 121 -132 121 -93 -1 -113 -84 -48 -197 14 -24 23 -43 22 -43 -2 0 -25 10
-51 21 -64 28 -117 21 -159 -20 -53 -53 -36 -140 34 -176 17 -9 66 -20 110
-26 43 -5 132 -25 196 -45 64 -19 117 -34 119 -32 2 2 23 55 48 118 25 64 65
148 88 188 60 104 57 175 -11 215 -30 18 -63 21 -96 7z m66 -102 c0 -13 -16
-50 -35 -83 l-34 -60 -1 60 c0 67 18 105 51 105 13 0 19 -7 19 -22z m-290 -18
c31 -44 75 -147 56 -131 -23 19 -86 126 -86 145 0 23 6 20 30 -14z m-122 -194
c15 -8 36 -24 47 -36 l20 -23 -59 7 c-70 8 -96 20 -96 46 0 16 7 20 30 20 17
0 43 -6 58 -14z"/>
<path d="M2914 15241 c-56 -24 -96 -119 -80 -188 6 -24 1 -21 -39 25 -74 83
-135 103 -189 61 -49 -39 -30 -115 53 -202 l26 -28 -28 10 c-74 28 -165 2
-191 -54 -21 -43 -20 -63 4 -102 32 -53 44 -55 292 -57 l228 -1 0 25 c0 54 31
229 55 311 23 76 24 90 13 124 -21 61 -91 98 -144 76z m64 -105 c5 -23 -28
-136 -38 -136 -20 0 -27 129 -8 148 17 17 42 11 46 -12z m-252 -108 c17 -18
42 -49 55 -68 l24 -35 -43 33 c-43 35 -102 100 -102 115 0 13 33 -9 66 -45z
m-66 -200 l45 -21 -33 -9 c-19 -5 -55 -8 -80 -6 -37 2 -48 7 -50 22 -8 40 49
47 118 14z"/>
<path d="M16083 14884 c-53 -26 -72 -80 -72 -204 0 -58 -7 -149 -16 -204 -9
-54 -15 -99 -13 -100 2 -2 48 -10 102 -20 55 -9 131 -28 170 -42 166 -59 198
-60 249 -4 71 79 -5 189 -131 190 l-44 0 51 40 c90 71 110 126 66 178 -42 50
-111 40 -190 -29 -29 -25 -37 -29 -31 -14 5 11 11 45 13 76 6 69 -12 110 -61
133 -42 20 -52 20 -93 0z m73 -98 c7 -30 -9 -81 -36 -116 l-20 -25 0 71 c0 69
10 94 37 94 7 0 15 -11 19 -24z m188 -164 c-23 -21 -61 -47 -85 -60 l-44 -23
50 47 c55 52 106 86 115 78 3 -3 -13 -22 -36 -42z m76 -217 c17 -9 30 -19 30
-23 0 -13 -23 -32 -39 -32 -28 0 -136 49 -121 54 56 19 95 19 130 1z"/>
<path d="M17845 11933 c-26 -6 -75 -52 -86 -81 -5 -13 -16 -57 -24 -98 -9 -41
-33 -118 -55 -171 -21 -54 -40 -104 -42 -110 -2 -8 39 -31 97 -58 55 -25 137
-70 181 -101 93 -63 142 -76 192 -50 41 21 66 68 58 111 -12 63 -62 106 -140
121 l-39 7 57 23 c125 51 171 130 111 189 -32 33 -92 33 -163 0 -30 -14 -55
-25 -57 -25 -1 0 8 21 21 47 28 53 30 102 9 143 -21 41 -73 63 -120 53z m50
-102 c7 -24 -24 -87 -60 -121 l-27 -25 7 40 c13 74 25 113 38 118 24 10 36 7
42 -12z m200 -181 c-9 -15 -93 -56 -139 -69 -51 -13 -37 0 45 44 62 34 107 45
94 25z m-55 -248 c22 -10 36 -26 38 -39 5 -37 -41 -29 -105 17 l-56 40 44 0
c24 0 60 -8 79 -18z"/>
<path d="M16601 4051 c-46 -22 -134 -54 -195 -72 l-112 -32 28 -136 c15 -75
28 -163 28 -196 1 -80 28 -139 73 -161 44 -21 96 -12 127 21 33 35 39 125 13
176 l-19 35 64 -33 c81 -42 141 -45 177 -8 51 50 17 125 -79 176 l-45 23 51
13 c92 24 137 77 124 146 -9 49 -46 79 -103 84 -40 3 -62 -3 -132 -36z m150
-57 c23 -28 -21 -54 -92 -54 -32 0 -59 4 -59 8 0 10 100 61 121 61 9 1 23 -6
30 -15z m-107 -238 c74 -34 102 -56 70 -56 -19 0 -140 65 -149 80 -10 16 1 12
79 -24z m-153 -158 c15 -46 6 -70 -23 -66 -26 4 -36 31 -37 108 l-1 55 25 -30
c14 -16 30 -47 36 -67z"/>
<path d="M2293 3161 c-68 -43 -63 -150 8 -187 37 -18 98 -23 143 -11 28 8 27
7 -19 -52 -71 -91 -73 -173 -4 -201 40 -17 106 16 154 78 l37 47 -6 -37 c-16
-87 40 -178 109 -178 56 0 91 23 110 73 16 41 15 48 -4 128 -11 46 -23 122
-26 169 -3 47 -8 104 -11 126 l-5 42 -162 6 c-89 3 -191 9 -227 11 -54 5 -71
2 -97 -14z m152 -73 l59 -12 -39 -17 c-66 -29 -135 -23 -135 11 0 31 28 36
115 18z m91 -212 c-42 -61 -73 -92 -82 -83 -4 4 1 19 11 33 26 40 97 115 103
109 3 -3 -11 -29 -32 -59z m202 -67 c16 -69 15 -98 -4 -106 -22 -8 -44 22 -44
62 0 36 18 95 29 95 4 0 13 -23 19 -51z"/>
<path d="M5400 1189 c-69 -16 -150 -29 -180 -29 -78 0 -125 -16 -154 -51 -28
-33 -35 -93 -16 -130 27 -49 130 -65 198 -30 l38 19 -33 -65 c-40 -80 -43
-130 -9 -169 17 -21 33 -28 59 -28 44 0 77 28 118 99 26 46 29 48 29 22 0 -42
24 -90 59 -120 62 -51 146 -28 171 48 15 45 6 84 -36 164 -19 35 -51 117 -71
183 -20 65 -39 118 -42 117 -3 0 -62 -14 -131 -30z m-134 -128 c-36 -40 -126
-66 -141 -41 -3 5 -1 18 5 29 10 19 34 25 119 29 33 2 34 1 17 -17z m110 -148
c-21 -61 -55 -123 -67 -123 -12 0 -4 29 24 85 44 89 68 110 43 38z m224 -114
c0 -32 -6 -38 -30 -32 -27 7 -44 65 -35 121 l7 47 29 -55 c15 -30 28 -67 29
-81z"/>
</g>
</svg>
